# xmcd
#
# Track frame offsets: 
#        150
#        14676
#        28455
#        40254
#        51991
#        65754
#        77050
#        90502
#        102345
#        115109
#        126459
#        138601
#        148240
#        159382
#        171106
#        182142
#        194477
#        205237
#        216952
#        226609
#        238800
#        250807
#        261853
#        273476
#        285328
#
# Disc length: 3982 seconds
#
# Revision: 4
# Processed by: cddbd v1.5.2PL0 Copyright (c) Steve Scherf et al.
# Submitted via: ExactAudioCopyFreeDBPlugin 1.0
#
DISCID=810f8c19
DTITLE=Various Artist - Rhythm 'n' Blues:  Fine Brown Sugar [Membran 
DTITLE=Music] [box set]
DYEAR=2005
DGENRE=Rhythm and Blues
TTITLE0=Ruth Brown - 5-10-15 Hours
TTITLE1=Mabel Scott - Googie Woogie
TTITLE2=Bertice Reading - I Gotta Know
TTITLE3=Sister Rosetta Tharpe - That's All
TTITLE4=Annie Laurie - My Rough and Ready Man
TTITLE5=Dolores Gibson - Call Me, Call Me, Call Me
TTITLE6=Faye Adams - It Hurts Me to My Heart
TTITLE7=Zilla Mays - Nightshift Blues
TTITLE8=Big Mama Thornton - Hound Dog
TTITLE9=Erline Harris - Long Tall Papa
TTITLE10=Ruth Brown - Hello Little Boy
TTITLE11=Vivian Verson - I Want to Know
TTITLE12=Anisteen Allen - Lies, Lies, Lies
TTITLE13=Zilla Mays and John Peek and The Blues Caravan - Triple Eight
TTITLE14=Little Sylvia Vanderpool - Speedy Life
TTITLE15=Little Esther - Lookin' for a Man
TTITLE16=Margie Day - Take Out Your False Teeth, Daddy
TTITLE17=Rosemary Mccoy - Dippin' is My Business
TTITLE18=Madonna Martin - Rattlesnake Papa
TTITLE19=Marie Adams - I'm Gonna Play the Honky Tonks
TTITLE20=Terry Timmons - Got Nobody to Love
TTITLE21=Laurie Tate and the Joe Morris Orchestra - Rock Me, Daddy
TTITLE22=Big Maybelle - My Country Man
TTITLE23=Albinia Jones - Hole in the Wall
TTITLE24=Honey Brown - Rockin' and Jumpin'
EXTD=YEAR: 2005
EXTT0=
EXTT1=
EXTT2=
EXTT3=
EXTT4=
EXTT5=
EXTT6=
EXTT7=
EXTT8=
EXTT9=
EXTT10=
EXTT11=
EXTT12=
EXTT13=
EXTT14=
EXTT15=
EXTT16=
EXTT17=
EXTT18=
EXTT19=
EXTT20=
EXTT21=
EXTT22=
EXTT23=
EXTT24=
PLAYORDER=
